<svg width="18" height="18" viewBox="0 0 18 18" fill="none" xmlns="http://www.w3.org/2000/svg">
<path fill-rule="evenodd" clip-rule="evenodd" d="M17.4099 16.5899L13.7528 12.9318L13.9804 12.6391C14.9791 11.355 15.5799 9.74779 15.5799 7.99998C15.5799 3.82094 12.179 0.419983 7.99992 0.419983C3.82088 0.419983 0.419922 3.82094 0.419922 7.99998C0.419922 12.179 3.82088 15.58 7.99992 15.58C9.74772 15.58 11.3549 14.9791 12.6391 13.9804L12.9317 13.7529L16.5899 17.41C16.7031 17.5232 16.851 17.58 16.9999 17.58C17.1488 17.58 17.2967 17.5233 17.4099 17.41C17.6369 17.183 17.6369 16.8169 17.4099 16.5899ZM1.57992 7.99998C1.57992 4.45902 4.45896 1.57998 7.99992 1.57998C11.5409 1.57998 14.4199 4.45902 14.4199 7.99998C14.4199 11.5409 11.5409 14.42 7.99992 14.42C4.45896 14.42 1.57992 11.5409 1.57992 7.99998Z" fill="white"/>
</svg>
