<svg width="16" height="16" viewBox="0 0 16 16" fill="none" xmlns="http://www.w3.org/2000/svg">
<path d="M9.58604 7.99958L14.97 2.61539C15.1181 2.46717 15.1998 2.26943 15.2 2.05859C15.2 1.84762 15.1183 1.64965 14.97 1.50167L14.4982 1.02998C14.3499 0.881415 14.1521 0.800049 13.941 0.800049C13.7303 0.800049 13.5326 0.881415 13.3842 1.02998L8.00028 6.41383L2.61609 1.02998C2.46799 0.881415 2.27014 0.800049 2.05917 0.800049C1.84844 0.800049 1.65059 0.881415 1.50249 1.02998L1.03045 1.50167C0.723249 1.80887 0.723249 2.30854 1.03045 2.61539L6.41453 7.99958L1.03045 13.3835C0.882234 13.532 0.800634 13.7297 0.800634 13.9406C0.800634 14.1514 0.882234 14.3492 1.03045 14.4975L1.50237 14.9692C1.65047 15.1176 1.84844 15.1991 2.05905 15.1991C2.27002 15.1991 2.46787 15.1176 2.61597 14.9692L8.00017 9.58522L13.3841 14.9692C13.5325 15.1176 13.7302 15.1991 13.9409 15.1991H13.9412C14.152 15.1991 14.3497 15.1176 14.4981 14.9692L14.9699 14.4975C15.118 14.3493 15.1997 14.1514 15.1997 13.9406C15.1997 13.7297 15.118 13.532 14.9699 13.3837L9.58604 7.99958Z" fill="#6E7E9D"/>
</svg>
