<svg width="25" height="27" viewBox="0 0 25 27" fill="none" xmlns="http://www.w3.org/2000/svg">
<path d="M7.4798 5.49091C7.4798 5.48385 7.48015 5.47654 7.48083 5.46898C7.48003 5.48326 7.4798 5.49091 7.4798 5.49091Z" fill="#ADBFD9"/>
<path d="M8.88393 3.24283C8.38234 3.38543 7.96692 3.84108 7.58618 4.29349C8.33955 3.67412 8.57224 3.7896 8.57224 3.7896C7.59934 3.98416 7.49132 5.28383 7.48083 5.46898C7.49345 5.32968 7.61896 5.10621 7.7382 4.89393C7.78542 4.80985 7.83167 4.7275 7.86952 4.65286C7.61833 5.334 7.70872 6.74989 7.77004 7.41853C7.69233 7.47383 7.63959 7.5648 7.63959 7.70986C7.63959 7.95441 7.67602 8.15044 7.70777 8.32131C7.74757 8.53553 7.78003 8.71021 7.72415 8.89139C7.62412 9.21707 7.87461 9.99366 8.6513 9.99366C8.65739 9.99366 8.66337 9.9935 8.66924 9.99318C8.71863 10.2934 8.79467 10.5891 8.89734 10.8769C9.16468 11.626 9.63032 12.6593 10.3649 13.4807C10.3324 14.0041 10.2571 14.5571 10.0892 14.8039C10.0805 14.8172 10.0714 14.8298 10.0616 14.8415C9.97984 14.9398 9.65233 15.0742 9.18099 15.2344C8.72097 15.3905 8.12363 15.5705 7.48339 15.7634C5.63433 16.3205 3.42752 16.9854 3.13798 17.496C2.64524 18.3641 0.87085 26.129 0.87085 26.129H24.8709C24.8709 26.129 23.0967 18.3641 22.6037 17.496C22.3139 16.9857 20.108 16.321 18.2591 15.7638L18.2588 15.7637C17.6886 15.5919 17.1522 15.4303 16.7166 15.2866C16.2237 15.1243 15.8595 14.9846 15.7208 14.8792C15.7038 14.866 15.6894 14.8534 15.6794 14.8415C15.493 14.6182 15.4115 14.037 15.3772 13.487C16.115 12.6646 16.5824 11.6279 16.8503 10.8769C16.9562 10.5801 17.0338 10.2748 17.0831 9.96497C17.6662 9.82175 17.8526 9.17978 17.7637 8.89139C17.7061 8.70385 17.7304 8.53578 17.7614 8.32166C17.7842 8.16395 17.8107 7.98122 17.8107 7.74737C17.8107 7.6564 17.791 7.58569 17.7581 7.53102C17.9206 6.7724 18.1656 5.41108 18.0286 4.61557C17.8313 3.46922 16.4506 2.24871 16.4506 2.24871C17.0917 2.49514 17.6094 3.41985 17.6094 3.41985C17.0491 1.9296 15.2435 1.31552 15.1252 1.27675L15.5752 1.42274C13.7011 -0.142733 10.8779 0.954243 10.8779 0.954243C11.0873 0.781761 11.7778 0.584488 11.7778 0.584488C10.3882 0.623101 9.74306 1.6381 9.45491 2.39151C9.61577 1.77486 9.8893 1.1033 10.3416 0.864842C10.3416 0.864842 9.27327 1.24311 9.03255 2.89332C9.00638 2.51491 9.02591 2.11631 9.1474 1.78382C9.1474 1.78382 8.81476 2.20427 8.88393 3.24283Z" fill="#ADBFD9"/>
<path d="M11.4514 26.129L12.1374 19.9845L11.6091 18.6857L12.8708 17.6129L14.0536 18.6857L13.6041 19.9845L14.2901 26.129H11.4514Z" fill="#F5F6F5"/>
</svg>
